<svg width="256" height="256" xmlns="http://www.w3.org/2000/svg" stroke="null" style="vector-effect: non-scaling-stroke;" preserveAspectRatio="xMidYMid meet">

 <g stroke="null">
  <title stroke="null">background</title>
  <rect stroke="null" fill="none" id="canvas_background" height="402" width="582" y="-1" x="-1"/>
 </g>
 <g stroke="null">
  <title stroke="null">Layer 1</title>
  <g id="svg_1" fill="#000000" transform="translate(0,256) scale(0.10000000149011612,-0.10000000149011612) ">
   <path stroke="null" id="svg_2" d="m1205.266703,2431.422382c-127.387685,-29.399244 -252.652241,-136.938586 -310.684409,-266.140528c-66.52468,-148.54355 -66.52468,-300.181758 0,-447.951644c35.385468,-78.140097 104.740985,-161.695844 169.850246,-204.247382c41.754852,-27.078251 43.87798,-29.399244 27.600665,-34.04123c-40.339433,-11.604965 -159.234606,-83.555747 -208.774261,-126.107285c-73.601773,-64.214139 -130.926231,-143.1279 -176.92734,-243.704262c-62.278424,-135.391257 -68.647808,-172.527144 -72.894064,-414.684078c-2.123128,-184.132109 -1.415419,-206.568375 9.200222,-218.17334c10.61564,-12.378629 64.401552,-13.152294 661.708251,-13.152294c597.306699,0 651.09261,0.773664 661.708251,13.152294c10.61564,11.604965 11.32335,34.04123 9.200222,218.17334c-4.246256,242.156934 -10.61564,279.292821 -72.894064,414.684078c-46.708818,101.350027 -103.325566,179.490123 -179.050468,245.251591c-49.539655,42.551538 -164.188571,112.181327 -207.358842,124.559956c-15.569606,4.641986 -14.154187,6.962979 21.93899,29.399244c21.231281,13.925958 62.986133,51.061845 92.709926,84.329411c140.834162,154.732865 172.681084,373.679869 83.509704,572.511601c-41.754852,92.066055 -120.310591,177.942795 -204.528005,223.58899c-98.371601,52.609174 -200.989458,67.308796 -304.315024,42.551538zm222.220739,-87.424069c116.772044,-44.872531 205.943423,-143.1279 246.282857,-270.008849c22.646699,-73.498111 22.646699,-192.642417 0,-266.140528c-39.631724,-126.880949 -127.387685,-222.815326 -246.282857,-270.782514c-60.155296,-23.983594 -186.127561,-23.983594 -246.282857,0c-118.895172,47.967188 -206.651133,143.901564 -246.282857,270.782514c-22.646699,73.498111 -22.646699,192.642417 0,266.140528c46.001108,145.448893 154.98835,250.667241 295.114803,284.708472c45.293399,10.831301 150.034384,3.094657 197.450911,-14.699622zm-31.139212,-913.697568c232.12867,-40.230545 416.133103,-218.17334 485.48862,-469.614245c17.692734,-62.66681 19.108153,-81.234754 22.646699,-243.704262l2.830837,-176.395466l-602.260664,0l-602.260664,0l0,145.448893c0,205.021046 14.154187,284.708472 72.186355,403.852778c118.895172,245.251591 370.839704,382.963841 621.368817,340.412303z"/>
  </g>
 </g>
</svg>