<?xml version="1.0" standalone="no"?>
<!DOCTYPE svg PUBLIC "-//W3C//DTD SVG 20010904//EN"
 "http://www.w3.org/TR/2001/REC-SVG-20010904/DTD/svg10.dtd">
<svg version="1.0" xmlns="http://www.w3.org/2000/svg"
 width="256.000000pt" height="256.000000pt" viewBox="0 0 256.000000 256.000000"
 preserveAspectRatio="xMidYMid meet">

<g transform="translate(0.000000,256.000000) scale(0.100000,-0.100000)"
fill="#000000" stroke="none">
<path d="M1140 2544 c-180 -38 -357 -177 -439 -344 -94 -192 -94 -388 0 -579
50 -101 148 -209 240 -264 59 -35 62 -38 39 -44 -57 -15 -225 -108 -295 -163
-104 -83 -185 -185 -250 -315 -88 -175 -97 -223 -103 -536 -3 -238 -2 -267 13
-282 15 -16 91 -17 935 -17 844 0 920 1 935 17 15 15 16 44 13 282 -6 313 -15
361 -103 536 -66 131 -146 232 -253 317 -70 55 -232 145 -293 161 -22 6 -20 9
31 38 30 18 89 66 131 109 199 200 244 483 118 740 -59 119 -170 230 -289 289
-139 68 -284 87 -430 55z m314 -113 c165 -58 291 -185 348 -349 32 -95 32
-249 0 -344 -56 -164 -180 -288 -348 -350 -85 -31 -263 -31 -348 0 -168 62
-292 186 -348 350 -32 95 -32 249 0 344 65 188 219 324 417 368 64 14 212 4
279 -19z m-44 -1181 c328 -52 588 -282 686 -607 25 -81 27 -105 32 -315 l4
-228 -851 0 -851 0 0 188 c0 265 20 368 102 522 168 317 524 495 878 440z"/>
</g>
</svg>
