<svg width="12" height="20" viewBox="0 0 12 20" fill="none" xmlns="http://www.w3.org/2000/svg">
<path d="M11.0769 17.7278C11.592 18.2327 11.6004 19.0596 11.0955 19.5748C10.5906 20.09 9.76362 20.0983 9.24844 19.5934L0.391908 10.9136C-0.123277 10.4087 -0.131612 9.58178 0.373293 9.0666C0.878197 8.55141 1.70514 8.54307 2.22033 9.04798L11.0769 17.7278Z" fill="#C6D0F5"/>
<path d="M2.32114 10.9489C1.7848 11.4745 0.92394 11.4658 0.398352 10.9295C-0.127235 10.3931 -0.11852 9.53226 0.417817 9.00667L9.17824 0.421839C9.71458 -0.103749 10.5754 -0.0950334 11.101 0.441304C11.6266 0.977642 11.6179 1.8385 11.0816 2.36409L2.32114 10.9489Z" fill="#C6D0F5"/>
</svg>
