<svg width="19" height="20" viewBox="0 0 19 20" fill="none" xmlns="http://www.w3.org/2000/svg">
<path d="M17.0002 19.0001C16.7442 19.0001 16.4883 18.9021 16.2933 18.7071L8.29325 10.7071C7.90225 10.3161 7.90225 9.68413 8.29325 9.29313L16.2933 1.29313C16.6843 0.902128 17.3162 0.902128 17.7072 1.29313C18.0982 1.68413 18.0982 2.31613 17.7072 2.70713L10.4142 10.0001L17.7072 17.2931C18.0982 17.6841 18.0982 18.3161 17.7072 18.7071C17.5122 18.9021 17.2562 19.0001 17.0002 19.0001" stroke="#C6D0F5"/>
<path d="M9.99976 19.0001C9.74376 19.0001 9.48776 18.9021 9.29276 18.7071L1.29276 10.7071C0.901762 10.3161 0.901762 9.68413 1.29276 9.29313L9.29276 1.29313C9.68376 0.902128 10.3158 0.902128 10.7068 1.29313C11.0978 1.68413 11.0978 2.31613 10.7068 2.70713L3.41376 10.0001L10.7068 17.2931C11.0978 17.6841 11.0978 18.3161 10.7068 18.7071C10.5118 18.9021 10.2558 19.0001 9.99976 19.0001" stroke="#C6D0F5"/>
</svg>
