<svg width="40" height="40" viewBox="0 0 40 40" fill="none" xmlns="http://www.w3.org/2000/svg">
<path d="M10.2778 1.5H9.27778V2.5V5H6.38889C3.79054 5 1.5 6.91822 1.5 9.5V34C1.5 36.5818 3.79054 38.5 6.38889 38.5H33.6111C36.2095 38.5 38.5 36.5818 38.5 34V9.5C38.5 6.91822 36.2095 5 33.6111 5H30.7222V2.5V1.5H29.7222L25.8333 1.5H24.8333V2.5V5H15.1667V2.5V1.5H14.1667H10.2778ZM29.7222 31.5H30.7222V30.5V27V26H29.7222H25.8333H24.8333V27V30.5V31.5H25.8333H29.7222ZM21.9444 31.5H22.9444V30.5V27V26H21.9444H18.0556H17.0556V27V30.5V31.5H18.0556H21.9444ZM14.1667 31.5H15.1667V30.5V27V26H14.1667H10.2778H9.27778V27V30.5V31.5H10.2778H14.1667ZM29.7222 24.5H30.7222V23.5V20V19H29.7222H25.8333H24.8333V20V23.5V24.5H25.8333H29.7222ZM21.9444 24.5H22.9444V23.5V20V19H21.9444H18.0556H17.0556V20V23.5V24.5H18.0556H21.9444ZM14.1667 24.5H15.1667V23.5V20V19H14.1667H10.2778H9.27778V20V23.5V24.5H10.2778H14.1667ZM32.6111 33H7.38889V17.5H32.6111V33ZM32.6111 12H7.38889V10.5H32.6111V12Z" stroke="#C6D0F5" stroke-width="2"/>
</svg>
