<svg width="44" height="46" viewBox="0 0 44 46" fill="none" xmlns="http://www.w3.org/2000/svg">
<path d="M38.9583 45.3577H4.86979C2.18028 45.3577 0 43.3557 0 40.8862L0 9.58536C0 7.1158 2.18028 5.11382 4.86979 5.11382H9.73958V0.642273H14.6094V5.11382H29.2188V0.642273H34.0885V5.11382H38.9583C41.6478 5.11382 43.8281 7.1158 43.8281 9.58536V40.8862C43.8281 43.3557 41.6478 45.3577 38.9583 45.3577ZM4.86979 18.5285V40.8862H38.9583V18.5285H4.86979ZM4.86979 9.58536V14.0569H38.9583V9.58536H4.86979ZM34.0885 36.4146H29.2188V31.9431H34.0885V36.4146ZM24.349 36.4146H19.4792V31.9431H24.349V36.4146ZM14.6094 36.4146H9.73958V31.9431H14.6094V36.4146ZM34.0885 27.4715H29.2188V23H34.0885V27.4715ZM24.349 27.4715H19.4792V23H24.349V27.4715ZM14.6094 27.4715H9.73958V23H14.6094V27.4715Z" fill="white"/>
</svg>
