<svg width="27" height="28" viewBox="0 0 27 28" fill="none" xmlns="http://www.w3.org/2000/svg">
<path d="M13.5 16.3333L13.1401 16.6803L13.5 17.0536L13.8599 16.6803L13.5 16.3333ZM14 5.83325C14 5.55711 13.7761 5.33325 13.5 5.33325C13.2239 5.33325 13 5.55711 13 5.83325L14 5.83325ZM7.51508 10.847L13.1401 16.6803L13.8599 15.9862L8.23492 10.1529L7.51508 10.847ZM13.8599 16.6803L19.4849 10.847L18.7651 10.1529L13.1401 15.9862L13.8599 16.6803ZM14 16.3333L14 5.83325L13 5.83325L13 16.3333L14 16.3333Z" fill="#C6D0F5"/>
<path d="M5.625 18.6667L5.625 19.8334C5.625 21.1221 6.63236 22.1667 7.875 22.1667L19.125 22.1668C20.3676 22.1668 21.375 21.1221 21.375 19.8334V18.6667" stroke="#C6D0F5"/>
</svg>
