<svg width="40" height="41" viewBox="0 0 40 41" fill="none" xmlns="http://www.w3.org/2000/svg">
<path d="M2.63636 36.8636V37.8636H3.63636H31.7273V39.5H3.63636C2.17956 39.5 1 38.3204 1 36.8636V8.77273H2.63636V36.8636ZM36.3636 30.5909H37.3636V29.5909V4.13636V3.13636H36.3636H10.9091H9.90909V4.13636V29.5909V30.5909H10.9091H36.3636ZM19.7999 24.9545L26.349 11.8563L27.0726 10.4091H25.4545H19.1818V8.77273H28.0909V11.173L21.2001 24.9545H19.7999ZM10.9091 1.5H36.3636C37.8204 1.5 39 2.67956 39 4.13636V29.5909C39 31.0477 37.8204 32.2273 36.3636 32.2273H10.9091C9.45229 32.2273 8.27273 31.0477 8.27273 29.5909V4.13636C8.27273 2.67956 9.45228 1.5 10.9091 1.5Z" stroke="#C6D0F5" stroke-width="2"/>
</svg>
